<!-- Generator: Adobe Illustrator 24.1.0, SVG Export Plug-In  -->
<svg version="1.1" xmlns="http://www.w3.org/2000/svg" xmlns:xlink="http://www.w3.org/1999/xlink" x="0px" y="0px"
	 width="312.91px" height="278.018px" viewBox="0 0 312.91 278.018" style="enable-background:new 0 0 312.91 278.018;"
	 xml:space="preserve">
<style type="text/css">
	.st0{fill:#4EC9F5;}
</style>
<defs>
</defs>
<path class="st0" d="M289.976,132.718c-10.461,0-19.301,7.043-22.047,16.633l-73.788-4.325
	c-0.96-25.587-20.518-46.484-45.522-49.545l1.302-50.044c10.539-2.065,18.518-11.368,18.518-22.503
	C168.439,10.288,158.151,0,145.505,0s-22.934,10.288-22.934,22.934c0,10.721,7.396,19.745,17.353,22.244l-1.302,50.045
	c-13.019,0.911-24.728,6.634-33.351,15.41L43.475,60.654c1.528-3.07,2.393-6.527,2.393-10.183c0-12.646-10.288-22.934-22.934-22.934
	S0,37.825,0,50.471s10.288,22.934,22.934,22.934c5.38,0,10.33-1.867,14.246-4.981l61.795,49.979
	c-5.436,8.206-8.613,18.033-8.613,28.591c0,13.492,5.177,25.795,13.644,35.036l-47.791,53.082
	c-3.327-1.882-7.165-2.962-11.253-2.962c-12.646,0-22.934,10.288-22.934,22.935c0,12.646,10.288,22.934,22.934,22.934
	s22.934-10.288,22.934-22.934c0-4.946-1.579-9.528-4.252-13.278l47.791-53.083c8.63,6.395,19.3,10.184,30.841,10.184
	c16.526,0,31.261-7.771,40.776-19.84l55.692,35.694c-0.9,2.455-1.391,5.105-1.391,7.868c0,12.646,10.288,22.935,22.934,22.935
	s22.934-10.288,22.934-22.935c0-12.646-10.288-22.934-22.934-22.934c-6.286,0-11.988,2.544-16.135,6.654l-55.692-35.693
	c2.485-4.83,4.244-10.09,5.109-15.646l73.771,4.324c1.767,10.902,11.242,19.253,22.635,19.253c12.646,0,22.934-10.288,22.934-22.935
	C312.91,143.006,302.622,132.718,289.976,132.718z M22.934,63.405C15.802,63.405,10,57.603,10,50.471s5.802-12.934,12.934-12.934
	s12.934,5.802,12.934,12.934S30.066,63.405,22.934,63.405z M260.288,209.696c7.132,0,12.934,5.802,12.934,12.934
	s-5.802,12.935-12.934,12.935s-12.934-5.803-12.934-12.935S253.156,209.696,260.288,209.696z M132.571,22.934
	c0-7.132,5.802-12.934,12.934-12.934s12.934,5.802,12.934,12.934s-5.802,12.934-12.934,12.934S132.571,30.066,132.571,22.934z
	 M44.963,268.018c-7.132,0-12.934-5.802-12.934-12.934s5.802-12.935,12.934-12.935s12.934,5.803,12.934,12.935
	S52.095,268.018,44.963,268.018z M142.277,188.908c-23.111,0-41.914-18.803-41.914-41.914s18.803-41.914,41.914-41.914
	s41.914,18.802,41.914,41.914S165.388,188.908,142.277,188.908z M289.976,168.586c-7.132,0-12.934-5.803-12.934-12.935
	s5.802-12.935,12.934-12.935s12.934,5.803,12.934,12.935S297.108,168.586,289.976,168.586z"/>
</svg>